<svg xmlns="http://www.w3.org/2000/svg" viewBox="0 0 334.94 379.03"><defs><style>.cls-1{fill:#adadad;}</style></defs><g id="Layer_2" data-name="Layer 2"><g id="Layer_1-2" data-name="Layer 1"><path class="cls-1" d="M204.39,379A22,22,0,0,1,195,363.88c-.9-5.42-5.58-6.79-9.94-8.67-12.65-5.43-25.44-10.63-37.65-16.93-18.21-9.38-30.58-25.21-42.81-41.06C92.1,281,78.52,265.82,62.77,252.61c-10.51-8.82-12.63-23.49-5.66-35.78,6.25-11,20.23-16,32.86-12.39,11.07,3.15,20,9.45,28.34,17a11.15,11.15,0,0,0,4.68,3c-2.3-7.2-4.55-14.42-6.9-21.62Q96.5,142.59,76.89,82.39c-4.56-14.08.28-27,12.36-33.93,12.93-7.45,30.29-2.87,36.8,10.66,4.21,8.77,6.77,18.35,9.91,27.62,2.83,8.34,5.42,16.76,8.16,25.13.45,1.36,1.12,2.64,1.74,4.06,20.08-16.54,26.8-17.06,46.54-3.5,6.35-8.06,14.49-12.34,25.22-12,11.08.37,17.93,6.78,24.28,15.28,1.28-1.17,2.32-2.12,3.35-3.08,14.42-13.53,37.61-9.39,45,8.69,11.53,28.3,22.4,56.88,33.34,85.42,12.28,32.06,14.43,64.9,7.31,98.49-.85,4,.21,8.47.78,12.67.36,2.59,1.58,5.06,2.24,7.63,1.86,7.35-1,12.83-8.22,15.21-22.55,7.46-45.15,14.79-67.73,22.17q-21.78,7.11-43.57,14.23a37.28,37.28,0,0,0-4,1.87Z"/><path class="cls-1" d="M0,32.94Q6.09,22.73,12.16,12.5C14.15,9.12,16,5.69,18,2.28l1.41.1c.89,2.73,2,5.41,2.61,8.2.88,4.05,3,4.72,6.87,3.92,20-4.14,39.87-8.75,60-11.82,32.54-5,64.85-3.14,96.56,6.35,9,2.69,9,2.67,6.24,11.67a84,84,0,0,0-2.73,9.58c-.76,4.24-2.91,4.35-6.39,3.2a179.45,179.45,0,0,0-83-7.61C77.89,29,56.5,33.73,35,37.53c-4.19.74-4.79,2.59-3.58,6.13a74,74,0,0,1,1.9,7.2c.08.37-.38.86-1,2.09L0,35.94Z"/></g></g></svg>