<svg id="Layer_1" data-name="Layer 1" xmlns="http://www.w3.org/2000/svg" viewBox="0 0 334.94 379.03"><defs><style>.cls-1{fill:#adadad;}</style></defs><path class="cls-1" d="M897.83,687.56a22,22,0,0,1-9.38-15.15c-.9-5.42-5.58-6.79-10-8.67-12.64-5.43-25.43-10.63-37.64-16.93-18.22-9.38-30.58-25.21-42.81-41.06-12.51-16.21-26.09-31.4-41.84-44.61-10.51-8.82-12.64-23.49-5.67-35.78,6.26-11,20.24-16,32.87-12.39,11.07,3.15,20,9.45,28.34,17a11.09,11.09,0,0,0,4.68,3c-2.3-7.2-4.56-14.42-6.9-21.62q-19.6-60.18-39.21-120.38c-4.55-14.08.29-27,12.37-33.93,12.93-7.45,30.29-2.87,36.79,10.66,4.22,8.77,6.78,18.35,9.92,27.62,2.82,8.34,5.42,16.76,8.16,25.13.44,1.36,1.12,2.64,1.73,4.06,20.09-16.54,26.81-17.06,46.54-3.5,6.36-8.06,14.49-12.34,25.23-12,11.07.37,17.92,6.78,24.28,15.28,1.27-1.17,2.32-2.12,3.35-3.08,14.41-13.53,37.61-9.39,45,8.69,11.53,28.3,22.4,56.88,33.34,85.42,12.28,32.06,14.43,64.9,7.31,98.49-.85,4,.21,8.47.78,12.67.36,2.59,1.58,5.06,2.23,7.63,1.87,7.35-1,12.83-8.21,15.21-22.56,7.46-45.15,14.79-67.73,22.17q-21.78,7.11-43.57,14.23a37.28,37.28,0,0,0-4,1.87Z" transform="translate(-693.44 -308.53)"/><path class="cls-1" d="M693.44,341.47c4-6.81,8.13-13.61,12.15-20.44,2-3.38,3.88-6.81,5.82-10.22l1.41.1c.89,2.73,2,5.41,2.61,8.2.88,4.05,3,4.72,6.87,3.92,20-4.14,39.87-8.75,60-11.82,32.54-5,64.86-3.14,96.56,6.35,9,2.69,9,2.67,6.24,11.67a86,86,0,0,0-2.72,9.58c-.76,4.24-2.91,4.35-6.39,3.2a179.45,179.45,0,0,0-83-7.61c-21.63,3.11-43,7.86-64.56,11.66-4.19.74-4.79,2.59-3.58,6.13a74,74,0,0,1,1.9,7.2c.08.37-.38.86-1,2.09l-32.31-17Z" transform="translate(-693.44 -308.53)"/></svg>